<?xml version="1.0" encoding="UTF-8" standalone="no"?>
<!DOCTYPE svg PUBLIC "-//W3C//DTD SVG 1.1//EN"
 "http://www.w3.org/Graphics/SVG/1.1/DTD/svg11.dtd">
<!-- Generated by graphviz version 5.0.0 (20220707.1540)
 -->
<!-- Title: UmlClassDiagram Pages: 1 -->
<svg width="967pt" height="920pt"
 viewBox="0.00 0.00 966.94 919.80" xmlns="http://www.w3.org/2000/svg" xmlns:xlink="http://www.w3.org/1999/xlink">
<g id="graph0" class="graph" transform="scale(1 1) rotate(0) translate(4 915.8)">
<title>UmlClassDiagram</title>
<polygon fill="white" stroke="transparent" points="-4,4 -4,-915.8 962.94,-915.8 962.94,4 -4,4"/>
<!-- 0 -->
<g id="node1" class="node">
<title>0</title>
<polygon fill="#f2f2f2" stroke="black" points="375.67,-794.5 375.67,-911.3 588.02,-911.3 588.02,-794.5 375.67,-794.5"/>
<text text-anchor="middle" x="481.85" y="-894.7" font-family="Times,serif" font-size="14.00">&lt;&lt;Abstract&gt;&gt;</text>
<text text-anchor="middle" x="481.85" y="-877.9" font-family="Times,serif" font-size="14.00">Context</text>
<polyline fill="none" stroke="black" points="375.67,-869.7 588.02,-869.7 "/>
<text text-anchor="start" x="383.67" y="-853.1" font-family="Times,serif" font-size="14.00">Internal:</text>
<text text-anchor="start" x="383.67" y="-836.3" font-family="Times,serif" font-size="14.00"> &#160;&#160;&#160;_msgSender(): address</text>
<text text-anchor="start" x="383.67" y="-819.5" font-family="Times,serif" font-size="14.00"> &#160;&#160;&#160;_msgData(): bytes</text>
<text text-anchor="start" x="383.67" y="-802.7" font-family="Times,serif" font-size="14.00"> &#160;&#160;&#160;_contextSuffixLength(): uint256</text>
</g>
<!-- 1 -->
<g id="node2" class="node">
<title>1</title>
<polygon fill="#f2f2f2" stroke="black" points="239.38,-498.3 239.38,-757.5 724.31,-757.5 724.31,-498.3 239.38,-498.3"/>
<text text-anchor="middle" x="481.85" y="-740.9" font-family="Times,serif" font-size="14.00">&lt;&lt;Abstract&gt;&gt;</text>
<text text-anchor="middle" x="481.85" y="-724.1" font-family="Times,serif" font-size="14.00">Ownable</text>
<polyline fill="none" stroke="black" points="239.38,-715.9 724.31,-715.9 "/>
<text text-anchor="start" x="247.38" y="-699.3" font-family="Times,serif" font-size="14.00">Private:</text>
<text text-anchor="start" x="247.38" y="-682.5" font-family="Times,serif" font-size="14.00"> &#160;&#160;_owner: address</text>
<polyline fill="none" stroke="black" points="239.38,-674.3 724.31,-674.3 "/>
<text text-anchor="start" x="247.38" y="-657.7" font-family="Times,serif" font-size="14.00">Internal:</text>
<text text-anchor="start" x="247.38" y="-640.9" font-family="Times,serif" font-size="14.00"> &#160;&#160;&#160;_checkOwner()</text>
<text text-anchor="start" x="247.38" y="-624.1" font-family="Times,serif" font-size="14.00"> &#160;&#160;&#160;_transferOwnership(newOwner: address)</text>
<text text-anchor="start" x="247.38" y="-607.3" font-family="Times,serif" font-size="14.00">Public:</text>
<text text-anchor="start" x="247.38" y="-590.5" font-family="Times,serif" font-size="14.00"> &#160;&#160;&#160;&lt;&lt;event&gt;&gt; OwnershipTransferred(previousOwner: address, newOwner: address)</text>
<text text-anchor="start" x="247.38" y="-573.7" font-family="Times,serif" font-size="14.00"> &#160;&#160;&#160;&lt;&lt;modifier&gt;&gt; onlyOwner()</text>
<text text-anchor="start" x="247.38" y="-556.9" font-family="Times,serif" font-size="14.00"> &#160;&#160;&#160;constructor(initialOwner: address)</text>
<text text-anchor="start" x="247.38" y="-540.1" font-family="Times,serif" font-size="14.00"> &#160;&#160;&#160;owner(): address</text>
<text text-anchor="start" x="247.38" y="-523.3" font-family="Times,serif" font-size="14.00"> &#160;&#160;&#160;renounceOwnership()</text>
<text text-anchor="start" x="247.38" y="-506.5" font-family="Times,serif" font-size="14.00"> &#160;&#160;&#160;transferOwnership(newOwner: address)</text>
</g>
<!-- 1&#45;&gt;0 -->
<g id="edge1" class="edge">
<title>1&#45;&gt;0</title>
<path fill="none" stroke="black" d="M481.85,-757.65C481.85,-759.84 481.85,-762.02 481.85,-764.19"/>
<polygon fill="none" stroke="black" points="471.35,-764.28 481.85,-794.28 492.35,-764.28 471.35,-764.28"/>
</g>
<!-- 2 -->
<g id="node3" class="node">
<title>2</title>
<polygon fill="#f2f2f2" stroke="black" points="742.75,-498.3 742.75,-757.5 958.94,-757.5 958.94,-498.3 742.75,-498.3"/>
<text text-anchor="middle" x="850.85" y="-740.9" font-family="Times,serif" font-size="14.00">&lt;&lt;Abstract&gt;&gt;</text>
<text text-anchor="middle" x="850.85" y="-724.1" font-family="Times,serif" font-size="14.00">ReentrancyGuard</text>
<polyline fill="none" stroke="black" points="742.75,-715.9 958.94,-715.9 "/>
<text text-anchor="start" x="750.75" y="-699.3" font-family="Times,serif" font-size="14.00">Private:</text>
<text text-anchor="start" x="750.75" y="-682.5" font-family="Times,serif" font-size="14.00"> &#160;&#160;_NOT_ENTERED: uint256</text>
<text text-anchor="start" x="750.75" y="-665.7" font-family="Times,serif" font-size="14.00"> &#160;&#160;_ENTERED: uint256</text>
<text text-anchor="start" x="750.75" y="-648.9" font-family="Times,serif" font-size="14.00"> &#160;&#160;_status: uint256</text>
<polyline fill="none" stroke="black" points="742.75,-640.7 958.94,-640.7 "/>
<text text-anchor="start" x="750.75" y="-624.1" font-family="Times,serif" font-size="14.00">Private:</text>
<text text-anchor="start" x="750.75" y="-607.3" font-family="Times,serif" font-size="14.00"> &#160;&#160;&#160;_nonReentrantBefore()</text>
<text text-anchor="start" x="750.75" y="-590.5" font-family="Times,serif" font-size="14.00"> &#160;&#160;&#160;_nonReentrantAfter()</text>
<text text-anchor="start" x="750.75" y="-573.7" font-family="Times,serif" font-size="14.00">Internal:</text>
<text text-anchor="start" x="750.75" y="-556.9" font-family="Times,serif" font-size="14.00"> &#160;&#160;&#160;_reentrancyGuardEntered(): bool</text>
<text text-anchor="start" x="750.75" y="-540.1" font-family="Times,serif" font-size="14.00">Public:</text>
<text text-anchor="start" x="750.75" y="-523.3" font-family="Times,serif" font-size="14.00"> &#160;&#160;&#160;&lt;&lt;modifier&gt;&gt; nonReentrant()</text>
<text text-anchor="start" x="750.75" y="-506.5" font-family="Times,serif" font-size="14.00"> &#160;&#160;&#160;constructor()</text>
</g>
<!-- 4 -->
<g id="node4" class="node">
<title>4</title>
<polygon fill="#f2f2f2" stroke="black" points="0,-552.7 0,-703.1 221.69,-703.1 221.69,-552.7 0,-552.7"/>
<text text-anchor="middle" x="110.85" y="-686.5" font-family="Times,serif" font-size="14.00">&lt;&lt;Struct&gt;&gt;</text>
<text text-anchor="middle" x="110.85" y="-669.7" font-family="Times,serif" font-size="14.00">Deposit</text>
<polyline fill="none" stroke="black" points="0,-661.5 221.69,-661.5 "/>
<text text-anchor="start" x="8" y="-644.9" font-family="Times,serif" font-size="14.00">amount: uint256</text>
<text text-anchor="start" x="8" y="-628.1" font-family="Times,serif" font-size="14.00">withdrawn: uint256</text>
<text text-anchor="start" x="8" y="-611.3" font-family="Times,serif" font-size="14.00">depositTime: uint256</text>
<text text-anchor="start" x="8" y="-594.5" font-family="Times,serif" font-size="14.00">requiredAdditionalDeposits: uint256</text>
<text text-anchor="start" x="8" y="-577.7" font-family="Times,serif" font-size="14.00">currentDepositsSince: uint256</text>
<text text-anchor="start" x="8" y="-560.9" font-family="Times,serif" font-size="14.00">claimed: bool</text>
</g>
<!-- 3 -->
<g id="node5" class="node">
<title>3</title>
<polygon fill="#f2f2f2" stroke="black" points="240.18,-0.5 240.18,-461.3 723.51,-461.3 723.51,-0.5 240.18,-0.5"/>
<text text-anchor="middle" x="481.85" y="-444.7" font-family="Times,serif" font-size="14.00">MixerMultiChain0xUntracked</text>
<polyline fill="none" stroke="black" points="240.18,-436.5 723.51,-436.5 "/>
<text text-anchor="start" x="248.18" y="-419.9" font-family="Times,serif" font-size="14.00">Public:</text>
<text text-anchor="start" x="248.18" y="-403.1" font-family="Times,serif" font-size="14.00"> &#160;&#160;commitments: mapping(bytes32=&gt;Deposit)</text>
<text text-anchor="start" x="248.18" y="-386.3" font-family="Times,serif" font-size="14.00"> &#160;&#160;nullifiers: mapping(bytes32=&gt;bool)</text>
<text text-anchor="start" x="248.18" y="-369.5" font-family="Times,serif" font-size="14.00"> &#160;&#160;feePercentage: uint256</text>
<text text-anchor="start" x="248.18" y="-352.7" font-family="Times,serif" font-size="14.00"> &#160;&#160;totalFees: uint256</text>
<text text-anchor="start" x="248.18" y="-335.9" font-family="Times,serif" font-size="14.00"> &#160;&#160;poolBalance: uint256</text>
<text text-anchor="start" x="248.18" y="-319.1" font-family="Times,serif" font-size="14.00"> &#160;&#160;totalDeposits: uint256</text>
<text text-anchor="start" x="248.18" y="-302.3" font-family="Times,serif" font-size="14.00"> &#160;&#160;withdrawalDelay: uint256</text>
<text text-anchor="start" x="248.18" y="-285.5" font-family="Times,serif" font-size="14.00"> &#160;&#160;totalDepositsAfter: uint256</text>
<polyline fill="none" stroke="black" points="240.18,-277.3 723.51,-277.3 "/>
<text text-anchor="start" x="248.18" y="-260.7" font-family="Times,serif" font-size="14.00">External:</text>
<text text-anchor="start" x="248.18" y="-243.9" font-family="Times,serif" font-size="14.00"> &#160;&#160;&#160;&lt;&lt;payable&gt;&gt; null()</text>
<text text-anchor="start" x="248.18" y="-227.1" font-family="Times,serif" font-size="14.00"> &#160;&#160;&#160;&lt;&lt;payable&gt;&gt; null()</text>
<text text-anchor="start" x="248.18" y="-210.3" font-family="Times,serif" font-size="14.00">Public:</text>
<text text-anchor="start" x="248.18" y="-193.5" font-family="Times,serif" font-size="14.00"> &#160;&#160;&#160;&lt;&lt;payable&gt;&gt; deposit(commitment: bytes32)</text>
<text text-anchor="start" x="248.18" y="-176.7" font-family="Times,serif" font-size="14.00"> &#160;&#160;&#160;&lt;&lt;event&gt;&gt; DepositMade(depositor: address, amount: uint256)</text>
<text text-anchor="start" x="248.18" y="-159.9" font-family="Times,serif" font-size="14.00"> &#160;&#160;&#160;&lt;&lt;event&gt;&gt; Withdrawn(recipient: address, amount: uint256)</text>
<text text-anchor="start" x="248.18" y="-143.1" font-family="Times,serif" font-size="14.00"> &#160;&#160;&#160;&lt;&lt;event&gt;&gt; FeeWithdrawn(owner: address, amount: uint256)</text>
<text text-anchor="start" x="248.18" y="-126.3" font-family="Times,serif" font-size="14.00"> &#160;&#160;&#160;&lt;&lt;event&gt;&gt; FeePercentageUpdated(newFeePercentage: uint256)</text>
<text text-anchor="start" x="248.18" y="-109.5" font-family="Times,serif" font-size="14.00"> &#160;&#160;&#160;&lt;&lt;event&gt;&gt; WithdrawalDelayUpdated(newWithdrawalDelay: uint256)</text>
<text text-anchor="start" x="248.18" y="-92.7" font-family="Times,serif" font-size="14.00"> &#160;&#160;&#160;constructor()</text>
<text text-anchor="start" x="248.18" y="-75.9" font-family="Times,serif" font-size="14.00"> &#160;&#160;&#160;withdraw(secret: bytes32, nullifier: bytes32, amount: uint256, recipient: address)</text>
<text text-anchor="start" x="248.18" y="-59.1" font-family="Times,serif" font-size="14.00"> &#160;&#160;&#160;getRemainingDeposits(commitment: bytes32): uint256</text>
<text text-anchor="start" x="248.18" y="-42.3" font-family="Times,serif" font-size="14.00"> &#160;&#160;&#160;withdrawFees()</text>
<text text-anchor="start" x="248.18" y="-25.5" font-family="Times,serif" font-size="14.00"> &#160;&#160;&#160;setFeePercentage(newFeePercentage: uint256)</text>
<text text-anchor="start" x="248.18" y="-8.7" font-family="Times,serif" font-size="14.00"> &#160;&#160;&#160;setWithdrawalDelay(newWithdrawalDelay: uint256)</text>
</g>
<!-- 4&#45;&gt;3 -->
<g id="edge2" class="edge">
<title>4&#45;&gt;3</title>
<path fill="none" stroke="black" d="M188.65,-552.4C205.57,-534.49 223.32,-515.44 239.85,-497.8 248.32,-488.76 256.95,-479.55 265.68,-470.26"/>
<polygon fill="black" stroke="black" points="265.85,-470.07 267.04,-462.96 274.07,-461.32 272.88,-468.43 265.85,-470.07"/>
</g>
<!-- 3&#45;&gt;1 -->
<g id="edge4" class="edge">
<title>3&#45;&gt;1</title>
<path fill="none" stroke="black" d="M481.85,-461.39C481.85,-463.52 481.85,-465.65 481.85,-467.77"/>
<polygon fill="none" stroke="black" points="471.35,-467.88 481.85,-497.88 492.35,-467.88 471.35,-467.88"/>
</g>
<!-- 3&#45;&gt;2 -->
<g id="edge3" class="edge">
<title>3&#45;&gt;2</title>
<path fill="none" stroke="black" d="M699.08,-461.56C706.05,-469.02 712.97,-476.44 722.01,-486.16"/>
<polygon fill="none" stroke="black" points="714.46,-493.46 742.57,-508.29 729.85,-479.17 714.46,-493.46"/>
</g>
<!-- 3&#45;&gt;4 -->
<g id="edge5" class="edge">
<title>3&#45;&gt;4</title>
<path fill="none" stroke="black" d="M256.08,-461.32C244.49,-473.65 233.02,-485.87 221.85,-497.8 207.64,-512.96 192.54,-529.16 178.17,-544.78"/>
<polygon fill="black" stroke="black" points="175.36,-542.66 171.18,-552.4 180.52,-547.39 175.36,-542.66"/>
</g>
</g>
</svg>
